<svg width="128" height="128" viewBox="0 0 128 128" fill="none" xmlns="http://www.w3.org/2000/svg">
  <!-- Top-left corner -->
  <path d="M8 40 L8 16 Q8 8 16 8 L40 8" stroke="black" stroke-width="8" stroke-linecap="round" fill="none"/>
  <!-- Top-right corner -->
  <path d="M88 8 L112 8 Q120 8 120 16 L120 40" stroke="black" stroke-width="8" stroke-linecap="round" fill="none"/>
  <!-- Bottom-left corner -->
  <path d="M8 88 L8 112 Q8 120 16 120 L40 120" stroke="black" stroke-width="8" stroke-linecap="round" fill="none"/>
  <!-- Bottom-right corner -->
  <path d="M88 120 L112 120 Q120 120 120 112 L120 88" stroke="black" stroke-width="8" stroke-linecap="round" fill="none"/>
  <!-- Are.na logo centered -->
  <g transform="translate(24, 40) scale(0.62)">
    <path d="M127.756 53.9569L109.873 39.7798C108.778 38.9145 108.778 37.4936 109.873 36.6257L127.756 22.4521C128.855 21.585 129.313 20.1201 128.777 19.1985C128.24 18.2796 126.741 17.9525 125.449 18.4717L104.183 27.0157C102.891 27.5401 101.673 26.8253 101.479 25.4322L98.2807 2.53188C98.0834 1.13961 97.0454 0 95.9706 0C94.9009 0 93.8637 1.13961 93.6716 2.53102L90.4719 25.433C90.2763 26.8262 89.0599 27.5392 87.7655 27.0165L66.8516 18.6144C65.5546 18.0935 63.4418 18.0935 62.1482 18.6144L41.2309 27.0165C39.9373 27.5392 38.7192 26.8262 38.5253 25.433L35.3299 2.53102C35.1326 1.13961 34.0964 0 33.0258 0C31.9518 0 30.913 1.13961 30.72 2.53102L27.5203 25.433C27.3264 26.8262 26.1092 27.5392 24.8156 27.0165L3.55088 18.4743C2.25814 17.9525 0.761231 18.2813 0.224232 19.1994C-0.31191 20.1218 0.145312 21.5876 1.2399 22.4529L19.1256 36.6266C20.221 37.4945 20.221 38.9153 19.1256 39.7815L1.2399 53.9569C0.14188 54.824-0.312768 56.3763 0.222516 57.4043C0.760373 58.434 2.25728 58.8476 3.54831 58.325L24.6225 49.7879C25.9179 49.2661 27.1223 49.9765 27.3033 51.3697L30.3434 74.4698C30.527 75.8604 31.7314 76.9991 33.0198 76.9991C34.3065 76.9991 35.5118 75.8613 35.6962 74.4698L38.7415 51.3697C38.9217 49.9765 40.1312 49.267 41.4196 49.7879L62.1482 58.1796C63.4401 58.704 65.5537 58.704 66.8465 58.1796L87.5716 49.7879C88.8618 49.2661 90.0679 49.9765 90.2523 51.3697L93.2976 74.4698C93.4794 75.8604 94.6847 76.9991 95.9697 76.9991C97.2582 76.9991 98.4634 75.8613 98.6461 74.4698L101.691 51.3697C101.877 49.9765 103.081 49.267 104.371 49.7879L125.448 58.325C126.735 58.8476 128.236 58.4332 128.773 57.4052C129.311 56.3789 128.854 54.8266 127.756 53.9595L127.756 53.9569ZM82.2565 39.9598L66.5068 52.1908C65.4045 53.0475 63.5962 53.0475 62.4973 52.1908L46.7425 39.9598C45.641 39.1031 45.6324 37.6927 46.7253 36.823L62.5093 24.2822C63.6022 23.4125 65.3942 23.4125 66.4879 24.2822L82.2719 36.823C83.3674 37.6918 83.3588 39.1022 82.2548 39.9606L82.2565 39.9598Z" fill="black"/>
  </g>
</svg>
